<?xml version="1.0" encoding="utf-8"?>
<!-- Generator: Adobe Illustrator 19.2.1, SVG Export Plug-In . SVG Version: 6.00 Build 0)  -->
<svg version="1.1" id="Capa_1" xmlns="http://www.w3.org/2000/svg" xmlns:xlink="http://www.w3.org/1999/xlink" x="0px" y="0px"
	 viewBox="0 0 250 250" style="enable-background:new 0 0 250 250;" xml:space="preserve">
<style type="text/css">
	.st0{fill:none;}
	.st1{fill:#4BB975;}
	.st2{fill:#DFDFDE;}
	.st3{fill:#FFFFFF;}
	.st4{fill:#FF3F3F;}
	.st5{fill:#FEC00F;}
	.st6{fill:#E2A425;}
	.st7{clip-path:url(#SVGID_2_);}
	.st8{fill:#6A5A64;}
	.st9{fill:#B5B5B6;}
	.st10{fill:#473447;}
	.st11{fill:#66C9DC;}
	.st12{fill:#B1E1EE;}
	.st13{fill:#E8E9E7;}
	.st14{fill:#E9E9EA;}
	.st15{clip-path:url(#SVGID_4_);fill:#E9E9EA;}
	.st16{clip-path:url(#SVGID_4_);fill:#8FD5E3;}
	.st17{fill:#989897;}
	.st18{fill:#B2B2B2;}
	.st19{fill:#332533;}
	.st20{fill:#858687;}
	.st21{fill:#E14A4B;}
	.st22{fill:#C9C9C8;}
	.st23{fill:none;stroke:#B5B5B6;stroke-width:1.038;stroke-miterlimit:10;}
	.st24{fill:#6F676C;}
	.st25{fill:#99999A;}
	.st26{fill:#C5CBCB;}
	.st27{fill:none;stroke:#B5B5B6;stroke-width:1.5243;stroke-linecap:round;stroke-linejoin:round;}
	.st28{fill:none;stroke:#B5B5B6;stroke-width:1.5243;stroke-linecap:round;stroke-linejoin:round;stroke-dasharray:0.1945,3.1113;}
	.st29{fill:none;stroke:#B5B5B6;stroke-width:1.5243;stroke-linecap:round;stroke-linejoin:round;stroke-dasharray:0.1898,3.0375;}
	.st30{fill:none;stroke:#B5B5B6;stroke-width:1.5243;stroke-linecap:round;stroke-linejoin:round;stroke-dasharray:0.1945,3.1112;}
	.st31{fill:none;stroke:#B5B5B6;stroke-width:2.1967;stroke-linecap:round;stroke-linejoin:round;}
	.st32{fill:none;stroke:#B5B5B6;stroke-width:2.1967;stroke-linecap:round;stroke-linejoin:round;stroke-dasharray:0.2802,4.4835;}
	.st33{fill:none;stroke:#B5B5B6;stroke-width:2.1967;stroke-linecap:round;stroke-linejoin:round;stroke-dasharray:0.2736,4.3774;}
	.st34{fill:#EFEFEE;}
</style>
<rect class="st0" width="250" height="250"/>
<g>
	<g>
		<ellipse transform="matrix(0.7071 -0.7071 0.7071 0.7071 42.062 131.0737)" class="st5" cx="179.3" cy="14.8" rx="5.5" ry="5.5"/>
		<path class="st5" d="M194.9,82.9l0.2-0.2c-0.4-0.5-0.8-1-1.2-1.5c-0.2-0.3-0.4-0.6-0.5-0.8c-2.7-4.6-2.4-10.4,0.8-14.7l8.2-8
			c5.3-5.3,5.3-13.9,0-19.3c-4.7-4.7-12-5.2-17.3-1.6l0,0c-0.1,0.1-0.3,0.2-0.4,0.3c-0.5,0.4-1.1,0.8-1.6,1.3l-0.1,0.1
			c-2.4,2.1-4.7,3.7-8.1,3.2c-4.2-0.5-7.4-4.4-5.7-9l3.5-3.5c2.2-2.2,2.2-5.8,0-8.1c-2.2-2.2-5.8-2.2-8.1,0l-13.5,13.5l0,0l0,0
			c-2.8,2.8-7.3,2.7-10.1,0c-2.8-2.8-1.1-6.3-0.3-10.1l-0.1-0.1c0.7-4.2-0.6-8.6-3.8-11.9c-5.3-5.3-13.9-5.3-19.3,0L66.4,62.9
			c-2.6,2.3-5.1,4.8-7.5,7.4l-1,0.9c-0.8,0.8-1.4,1.6-1.9,2.4c-11.7,14.4-18.7,32.7-18.9,52.7c-0.4,47,37.4,85.4,84.4,85.8
			c47,0.4,85.4-37.4,85.8-84.4C207.5,111.4,202.9,95.9,194.9,82.9z"/>
	</g>
	<g>
		<path class="st3" d="M175.6,117.6c0,2.2-1.7,3.9-3.9,3.9H69.9c-2.2,0-3.9-1.7-3.9-3.9V53.8c0-2.2,1.7-3.9,3.9-3.9h101.8
			c2.1,0,3.9,1.7,3.9,3.9V117.6z"/>
		<path class="st13" d="M66.6,52.5c8.6,0.3,75,4.3,108.7,66.4c0.2-0.4,0.3-0.9,0.3-1.4V53.8c0-2.2-1.7-3.9-3.9-3.9h-103
			C67,49.9,67.2,51,66.6,52.5z"/>
		<path class="st3" d="M147.3,101.3L147.3,101.3l0-2.5V73.2v-2.5h0c-0.2-8.4-11.7-15.1-25.9-15.1c-14.2,0-25.7,6.8-25.9,15.1h-0.1
			v2.5v25.6v2.5h0.1c0.2,8.4,11.7,15.1,25.9,15.1C135.6,116.4,147.1,109.6,147.3,101.3z"/>
		<path class="st2" d="M145.3,100.2L145.3,100.2l0-2.3V74.1v-2.3h0c-0.2-7.8-10.9-14.1-24-14.1c-13.2,0-23.8,6.3-24,14.1h-0.1v2.3
			v23.9v2.3h0.1c0.2,7.8,10.9,14.1,24,14.1C134.4,114.4,145.1,108.1,145.3,100.2z"/>
		<g>
			<line class="st23" x1="97.1" y1="100.5" x2="145.3" y2="100.5"/>
			<line class="st23" x1="97.1" y1="71.5" x2="145.3" y2="71.5"/>
		</g>
		<circle class="st8" cx="109.4" cy="86" r="2.3"/>
		<circle class="st8" cx="132.4" cy="86" r="2.3"/>
	</g>
	<path class="st2" d="M212.7,72.8c-1.5,0-2.7,1.2-2.7,2.7c0,1.5,1.2,2.7,2.7,2.7c1.5,0,2.7-1.2,2.7-2.7
		C215.5,74,214.2,72.8,212.7,72.8z"/>
	<path class="st2" d="M17.3,134.9c-2.1,0-3.9,1.7-3.9,3.9c0,2.1,1.7,3.9,3.9,3.9c2.1,0,3.9-1.7,3.9-3.9
		C21.2,136.6,19.5,134.9,17.3,134.9z"/>
	<path class="st14" d="M132.1,211.7v-29.8c11.6-0.3,20.7-2.2,21.1-4.5h0v-29.6c0,0,0,0,0,0c0-1.6-3.9-3-9.9-3.8v-16.2
		c0-1.3-1.1-2.3-2.3-2.3c-1.3,0-2.4,1-2.4,2.3v15.7c-2.8-0.2-6-0.4-9.2-0.4c-3.2,0-6.2,0.1-8.9,0.3v-15.6c0-1.3-1.1-2.3-2.3-2.3
		c-1.3,0-2.4,1-2.4,2.3v16.1c-6.2,0.8-10.3,2.3-10.3,3.9c0,0,0,0,0,0.1v29.3c0,0,0,0,0,0.1c0,0,0,0,0,0.1v0.1h0
		c0.4,2.4,9.6,4.3,21.3,4.5v30.2"/>
	<path class="st13" d="M68.6,51.9c0,0-1.2,0.1-1.3,1.8v63.5c0,0,0.3,4.3,5.7,4.3h-3.7c0,0-2.8-0.6-3.2-3l-0.1-1V53.9
		c0,0-0.1-2.3,1.3-3.6C68.7,49.1,68.6,51.9,68.6,51.9z"/>
	<g>
		<g>
			<path class="st24" d="M109.1,140.7c-1.3,0-2.3-1.1-2.3-2.3v-18c0-1.3,1-2.3,2.3-2.3c1.3,0,2.3,1.1,2.3,2.3v18
				C111.5,139.6,110.4,140.7,109.1,140.7z"/>
			<path class="st24" d="M132,140.7c-1.3,0-2.3-1.1-2.3-2.3v-18c0-1.3,1.1-2.3,2.3-2.3c1.3,0,2.3,1.1,2.3,2.3v18
				C134.3,139.6,133.3,140.7,132,140.7z"/>
			<g>
				<path class="st19" d="M106.8,132.9c0,0,2-0.7,4.7-0.5v3.8l-4.8,0.8L106.8,132.9z"/>
				<path class="st19" d="M134.4,132.9c0,0-2-0.7-4.7-0.5v3.8l4.8,0.8L134.4,132.9z"/>
				<path class="st2" d="M96.5,140.4V170h47.7v-29.6l0,0c0,0,0,0,0,0c0-2.6-10.7-4.7-23.9-4.7C107.2,135.7,96.5,137.8,96.5,140.4
					C96.5,140.4,96.5,140.4,96.5,140.4z"/>
				<ellipse class="st3" cx="120.4" cy="169.8" rx="23.9" ry="4.7"/>
			</g>
		</g>
	</g>
	<path class="st25" d="M117.9,171.2h5.3v-0.4c0-0.3-1.2-0.7-2.7-0.7c-1.5,0-2.7,0.5-2.7,0.7c0,0,0,0,0,0V171.2z"/>
	<polygon class="st24" points="168.1,175.8 168.1,181.8 165.1,183.9 165.1,178.3 	"/>
	<path class="st3" d="M88.1,143.3c0-0.1-0.1-0.2-0.2-0.2l-3.6-1.5l4.7-8.5c0.1-0.1,0-0.2,0-0.3c-0.1-0.1-0.2-0.1-0.3,0l-12.2,9.7
		c-0.1,0.1-0.1,0.1-0.1,0.2c0,0.1,0.1,0.2,0.2,0.2l4.2,1.6l-5.2,8.4c-0.1,0.1,0,0.2,0,0.3c0,0,0.1,0,0.1,0.1c0.1,0,0.1,0,0.2,0
		l12.1-9.7C88,143.5,88.1,143.4,88.1,143.3z"/>
	<g>
		<circle class="st2" cx="29.7" cy="63.6" r="7.8"/>
		<path class="st3" d="M32.6,63.6C32.6,63.6,32.5,63.5,32.6,63.6l-1.9-0.8l2.4-4.2c0,0,0-0.1,0-0.1c0,0-0.1,0-0.1,0l-6.1,4.8
			c0,0-0.1,0.1-0.1,0.1c0,0,0,0.1,0.1,0.1l2.1,0.8l-2.6,4.2c0,0,0,0.1,0,0.1c0,0,0,0,0,0c0,0,0.1,0,0.1,0l6-4.8
			C32.5,63.7,32.6,63.6,32.6,63.6z"/>
	</g>
	<path class="st3" d="M152.4,138c0-0.1,0-0.2,0.1-0.2l2.9-2.7l-7.4-6.3c-0.1-0.1-0.1-0.2-0.1-0.3c0-0.1,0.2-0.1,0.3-0.1l14.8,4.9
		c0.1,0,0.2,0.1,0.2,0.2c0,0.1,0,0.2-0.1,0.2l-3.4,2.9l7.7,6.1c0.1,0.1,0.1,0.2,0.1,0.3c0,0,0,0.1-0.1,0.1c-0.1,0-0.1,0.1-0.2,0
		l-14.7-5C152.5,138.2,152.4,138.1,152.4,138z"/>
	<path class="st2" d="M236.6,172.3c0,5.4-4.5,9.7-9.9,9.7c-5.4,0-9.7-4.5-9.7-9.9c0-5.4,4.5-9.7,9.9-9.7
		C232.3,162.5,236.6,166.9,236.6,172.3"/>
	<path class="st3" d="M231.7,174.8c-0.7-0.9-1.7-1.6-2.6-2.4c0.6-0.6,1.4-1.3,1.9-1.9c0.5-0.6,2.3-2.7,1.4-3.4
		c-0.3-0.2-0.7-0.3-1.1-0.2c-1.7,0.7-3,2.2-3.7,2.9c-0.1,0.1-0.5,0.5-0.6,0.6c-0.1-0.1-0.3-0.2-0.4-0.4c-0.9-0.8-3.8-4-5.2-2.9
		c-0.9,0.8,0.9,2.7,1.4,3.2c0.5,0.7,1.3,1.5,1.9,2.1c-0.9,0.8-2,1.7-2.8,2.6c0,0,0,0.1-0.1,0.1c-0.4,0.5-1,1.2-0.9,1.8
		c0.1,0.5,0.4,0.7,0.8,0.7c1.3,0,3.8-1.9,4.3-2.3c0.3-0.2,0.8-0.7,1-0.9c0.3,0.2,0.8,0.7,1,0.9c0.6,0.5,4.3,3.6,4.6,1.6
		C232.9,176.3,232.2,175.4,231.7,174.8C231.8,174.9,231.8,174.8,231.7,174.8z"/>
	<path class="st2" d="M43.3,197.9c-0.7-0.8-1.5-1.5-2.3-2.2c0.5-0.6,1.3-1.1,1.8-1.7c0.4-0.5,2.1-2.4,1.2-3.1
		c-0.3-0.2-0.6-0.3-1-0.2c-1.5,0.7-2.7,2-3.3,2.6c-0.1,0.1-0.4,0.4-0.6,0.5c-0.1-0.1-0.2-0.2-0.4-0.3c-0.8-0.7-3.5-3.6-4.7-2.6
		c-0.9,0.7,0.8,2.4,1.2,2.9c0.5,0.6,1.2,1.4,1.8,1.9c-0.8,0.7-1.9,1.6-2.5,2.4c0,0,0,0.1-0.1,0.1c-0.4,0.5-1,1.1-0.9,1.7
		c0.1,0.4,0.3,0.6,0.7,0.6c1.2,0,3.4-1.7,3.9-2.1c0.2-0.2,0.7-0.6,0.9-0.8c0.2,0.2,0.7,0.6,0.9,0.8c0.6,0.5,3.9,3.3,4.2,1.5
		C44.3,199.2,43.7,198.4,43.3,197.9C43.3,197.9,43.3,197.9,43.3,197.9z"/>
	<path class="st2" d="M58.9,225.2c-1-1.3-2.4-2.3-3.6-3.4c0.9-0.9,2-1.8,2.7-2.7c0.6-0.8,3.3-3.8,1.9-4.9c-0.4-0.3-1-0.4-1.5-0.3
		c-2.4,1-4.2,3.2-5.2,4c-0.2,0.2-0.7,0.7-0.9,0.8c-0.2-0.2-0.4-0.3-0.6-0.5c-1.2-1.1-5.4-5.6-7.4-4c-1.3,1.1,1.3,3.8,1.9,4.5
		c0.8,0.9,1.9,2.2,2.7,3c-1.3,1.1-2.9,2.4-3.9,3.7c0,0-0.1,0.1-0.1,0.1c-0.6,0.7-1.5,1.7-1.3,2.6c0.1,0.7,0.5,0.9,1.1,0.9
		c1.8,0,5.3-2.7,6-3.2c0.4-0.3,1.1-0.9,1.5-1.2c0.4,0.3,1.1,0.9,1.5,1.2c0.9,0.7,6,5.1,6.5,2.3c0.2-0.9-0.8-2.2-1.3-2.9
		C58.9,225.3,58.9,225.2,58.9,225.2z"/>
	<path class="st2" d="M230.1,96.1c-0.7-0.9-1.7-1.6-2.5-2.4c0.6-0.6,1.4-1.2,1.9-1.9c0.5-0.6,2.3-2.6,1.4-3.4
		c-0.3-0.2-0.7-0.3-1.1-0.2c-1.7,0.7-3,2.2-3.6,2.8c-0.1,0.1-0.5,0.5-0.6,0.6c-0.1-0.1-0.3-0.2-0.4-0.4c-0.9-0.8-3.8-4-5.2-2.8
		c-0.9,0.8,0.9,2.6,1.4,3.2c0.5,0.7,1.3,1.5,1.9,2.1c-0.9,0.8-2,1.7-2.8,2.6c0,0,0,0.1-0.1,0.1c-0.4,0.5-1,1.2-0.9,1.8
		c0.1,0.5,0.4,0.7,0.8,0.7c1.3,0,3.7-1.9,4.2-2.2c0.3-0.2,0.8-0.6,1-0.9c0.3,0.2,0.8,0.7,1,0.9c0.6,0.5,4.2,3.6,4.6,1.6
		C231.2,97.6,230.6,96.7,230.1,96.1C230.2,96.2,230.1,96.2,230.1,96.1z"/>
	<path class="st24" d="M184.9,173.2c-4.2-0.3-8.1-0.1-11.6,0.7v-8c0-0.1-0.1-14.4,7.8-19.3c5.9-3.7,12.1-3,23,3
		c0.6-2.1,1.1-4.2,1.4-5.3c-10.8-5.7-19.1-7.2-27.2-2.2c-10.5,6.5-10.3,23.2-10.3,23.8v9.7c-2.8,1.3-5.2,2.9-7.4,5.1
		c-10.9,10.6-10.4,28.4-10.4,29.8v12c0,7.5-6.1,13.6-13.6,13.6c-7.5,0-13.6-6.1-13.6-13.6v-51.5h-5.3v51.5
		c0,10.4,8.5,18.9,18.9,18.9c10.4,0,18.9-8.5,18.9-18.9v-12.1l0-0.1c0-0.2-0.7-16.6,8.8-25.8c1.1-1.1,2.4-2,3.7-2.9v8.1
		c0,9.2,7.5,16.7,16.7,16.7c9.2,0,16.7-7.5,16.7-16.7C201.4,181.1,194.3,173.9,184.9,173.2z M184.7,201.2c-6.3,0-11.4-5.1-11.4-11.4
		v-10.4c3.3-0.9,7-1.3,11.2-0.9c6.7,0.5,11.6,5.3,11.6,11.4C196.1,196.1,191,201.2,184.7,201.2z"/>
	<g>
		<path class="st25" d="M164.3,184.7l-0.6,0.4c-11.1,8.7-10.5,23.6-10.5,23.6s0.5,12.6-0.7,16.9c-1.2,4.3-3.6,9-12,10.4
			c-3.3,0.6-8,0.9-13.1-3.5c-3.8-3.2-4.2-10.1-4.2-13.7c0-1.3,0-2.2,0-2.2l0-45.5l-5.3,0.1v51.5c0,10.4,8.5,18.9,18.9,18.9
			c10.4,0,18.9-8.5,18.9-18.9v-12.1l0-0.1C155.6,210.3,154.9,193.9,164.3,184.7z"/>
		<path class="st25" d="M176.1,151.6c-5.4,7.4-5.5,19-5.5,19s-0.1,15.7,0,19.3c0.1,3.6,2.6,10.3,8.6,13.7c5.3,3,11.2,0.9,11.2,0.9
			c13.2-5.5,9.5-20.2,2-24.9c-6.6-4.1-16.2-0.8-16.2-0.8l-2.8-2.2V174v-3.1V166c0-0.1-0.1-11.3,5.3-17.2L176.1,151.6z M173.4,179.5
			c3.3-0.9,7-1.3,11.2-0.9c6.7,0.5,11.6,5.3,11.6,11.4c0,6.3-5.1,11.4-11.4,11.4c-6.3,0-11.4-5.1-11.4-11.4V179.5z"/>
		<path class="st24" d="M173.4,174v5.7c0,0,2.4-0.8,3.4-0.9v-5.4C176.8,173.3,174,173.8,173.4,174z"/>
	</g>
</g>
</svg>
