<?xml version="1.0" standalone="no"?>
<!DOCTYPE svg PUBLIC "-//W3C//DTD SVG 20010904//EN"
 "http://www.w3.org/TR/2001/REC-SVG-20010904/DTD/svg10.dtd">
<svg version="1.0" xmlns="http://www.w3.org/2000/svg"
 width="272.472648pt" height="274.550884pt" viewBox="0 0 272.472648 274.550884"
 preserveAspectRatio="xMidYMid meet">
<metadata>
Created by potrace 1.12, written by Peter Selinger 2001-2015
</metadata>
<g transform="translate(-316.163531,402.968195) scale(0.100000,-0.100000)"
fill="#000000" stroke="none">
<path d="M3965 4012 c-234 -81 -326 -452 -183 -735 16 -33 53 -84 80 -114 215
-227 507 -63 544 305 18 183 -74 415 -199 500 -43 30 -133 62 -171 62 -12 -1
-44 -8 -71 -18z"/>
<path d="M4939 3996 c-227 -61 -396 -396 -338 -668 26 -121 95 -219 184 -263
61 -30 154 -25 230 10 243 114 371 517 244 767 -34 67 -109 134 -170 152 -62
19 -88 19 -150 2z"/>
<path d="M3348 3255 c-223 -71 -253 -484 -50 -705 124 -136 280 -157 387 -53
130 126 133 412 6 596 -95 139 -224 200 -343 162z"/>
<path d="M5550 3254 c-168 -61 -289 -262 -290 -480 0 -201 122 -355 273 -342
162 13 304 176 344 392 26 143 -2 274 -77 360 -64 73 -164 101 -250 70z"/>
<path d="M4375 2882 c-127 -47 -220 -138 -337 -327 -92 -149 -144 -216 -287
-368 -116 -124 -152 -173 -182 -248 -43 -110 -32 -320 24 -443 34 -74 107
-149 176 -183 52 -26 64 -28 181 -28 116 1 134 3 250 39 276 86 297 87 520 21
257 -75 372 -80 490 -20 58 29 135 112 162 173 53 119 72 293 44 402 -24 95
-66 156 -211 309 -151 158 -199 221 -286 366 -81 136 -178 237 -273 284 -87
43 -194 52 -271 23z"/>
</g>
</svg>
